<svg xmlns="http://www.w3.org/2000/svg" width="9911" height="1587"><g fill="#FFF" fill-rule="evenodd"><path d="M1072.922 762.411a427.087 427.087 0 0125.767-24.78c8.882-6.964 58.553.712 96.273-22.863 37.61-23.63 83.717-79.277 96.053-102.413 12.445-23.136 12.555-37.993 15.954-65.79l7.566-57.236s-41.064 6.414-69.683 13.596a159.595 159.595 0 00-65.68 34.156c-16.886 14.035-12.938 1.974-33.717 21.985-20.888 20.01-41.338 54.605-51.48 87.884-10.308 33.333-4.222 76.974-6.305 84.65-1.371 5.153-8.772 12.938-13.597 17.653l4.934-65.845c2.084-31.195 1.261-65.077.11-85.088l-2.577-21.6c6.634-6.58 27.851-27.413 38.597-36.075 12.993-10.362 51.097-8.443 80.921-30.812 28.51-21.327 73.795-82.018 65.626-136.569-8.114-54.55-34.485-91.94-34.485-91.94s-55.264 13.157-88.213 40.076c-32.84 26.92-69.902 86.843-64.145 130.867 5.866 43.97 32.95 61.788 32.237 76.152-.658 12.335-25.384 29.605-32.676 34.375a90.681 90.681 0 01-1.37-19.847c1.809-17.599-9.32-48.246-9.32-48.246s-11.678-26.151-13.433-34.375c-1.754-8.169 4.167-26.7 10.033-44.572 5.866-17.983-2.796-53.784-1.042-74.562 1.755-20.724-5.811-59.156-7.017-68.696-1.042-9.43-14.584-42.05-19.573-49.78l-13.487-24.781c-6.524-10.198-16.94-15.516-25.164-22.972-8.334-7.456-17.599-17.05-23.356-24.233-5.756-7.182-20.12-11.458-26.864-14.035C936.901 134.01 925.498 118 925.498 118s-.603 18.366-3.07 27.083c-2.577 8.718-9.76 13.871-13.597 34.376-3.728 20.559-7.401 37.829-7.84 55.811-.548 17.928 4.496 55.812 12.939 74.507 8.552 18.695 20.56 41.667 41.886 71.163 21.217 29.496 78.51 72.15 84.65 80.647l14.857 43.586s6.36 28.673 7.347 63.268l-2.742.767c-5.263 1.042-18.53-8.827-25.384-15.899-6.853-7.127-4.934-16.393-11.732-34.923-6.798-18.64-28.29-63.652-54.66-92.874-26.426-29.276-60.582-39.2-92.106-43.147-31.524-3.947-89.748 19.353-89.748 19.353s5.756 39.584 18.366 73.356c12.664 33.717 76.097 72.369 107.457 84.156 31.305 11.733 107.292 2.084 114.364 3.235l27.741 15.899 8.444-1.26v.767c-.055 28.234 7.072 37.5 4.714 60.252-2.357 22.752 1.59 46.163-3.18 62.83l-9.703 27.083-8.663-5.209c-3.728-4.386-9.759-19.133-16.995-43.805-7.347-24.726-43.696-65.241-66.777-86.349-22.917-21.107-91.01-36.732-108.17-31.085l-56.524.986s10.472 43.97 17.873 62.885c7.292 18.914 2.906 27.85 11.184 44.298 8.17 16.338 12.83 23.081 38.158 44.792 25.384 21.82 61.569 29.934 90.626 27.85 29.167-2.137 77.796-10.58 87.117-9.21 9.43 1.316 12.17 5.647 12.17 5.647l.659-1.206c2.85 8.334 4.111 22.752 3.18 37.39-1.097 15.57-3.51 55.154-10.582 85.911-7.182 30.702-15.954 76.92-22.259 82.95l-12.445 10.526v.11l-7.346-8.004c-5.757-9.814-1.152-31.305-9.979-75.604-8.826-44.243-61.513-95.505-99.123-114.364-37.61-18.75-112.336-19.792-112.336-19.792s6.415 42.27 11.13 53.728c4.824 11.568.767 19.956 11.458 51.92 10.855 32.017 45.395 62.445 84.266 86.403 38.87 24.014 102.248 18.147 107.785 23.959l11.733 12.884c-1.755 9.704-4.277 22.971-8.663 30.098-6.743 11.02-21.82 58.553-47.04 91.284-12.28 15.844-21.052 28.18-26.918 36.623-2.96-2.851-17.873-16.941-22.917-24.617-5.702-8.552 12.72-43.476 9.32-86.952-3.454-43.586-26.645-64.748-57.072-91.064l-98.192-23.794s-6.195 26.92-7.95 60.307c-1.699 33.28 20.231 72.15 49.179 98.85 29.057 26.645 78.838 26.041 94.408 44.901 7.73 9.32 28.015 29.496 28.29 29.77l-4.058 6.305s-10.032 19.189-23.52 33.224c-9.813 10.252-45.778 42.489-77.467 65.79a105.1 105.1 0 01-9.649-19.628c-3.015-9.43 13.213-20.34 9.978-83.827-2.906-56.03-67.434-91.338-85.033-103.235-17.434-11.897-41.996-30.757-41.996-30.757s-43.202 76.316 2.357 153.894c25.165 43.092 102.468 60.307 106.36 67.324l9.705 22.15c-8.772 6.14-17.106 11.403-24.068 14.912l-63.652 34.978c-26.261 12.226-32.292 6.36-74.562 32.785-42.38 26.316-100.549 72.04-106.305 79.496 0 0 7.401 22.643 10.91 26.974 3.564 4.386 7.072 2.084 9.759-.164 2.796-2.303-1.097-11.842 5.866-17.709 7.072-5.866 59.101-51.864 75.987-63.377 16.996-11.623 43.421-26.59 63.597-34.156 12.994-4.934 39.858-17.105 60.691-27.577l6.36 3.344c4.221.439 27.028-.822 33.936 6.744 6.853 7.566 32.347 56.305 49.123 66.228 16.832 9.978 48.52 33.992 83.334 24.068 34.704-9.978 56.908-8.552 73.136-20.285 16.174-11.623 24.507-32.785 24.507-32.785s-8.114-9.101-12.939-19.737c-4.824-10.636-32.017-44.518-50.987-54.002-19.079-9.485-67.105-24.398-94.682-13.871-27.632 10.69-53.948 34.868-63.652 39.09-9.813 4.167-33.06-1.535-36.787-3.728l-.658-.494 15.186-8.607c12.61-8.662 78.455-59.54 94.957-74.836 9.1-8.333 21.437-21.985 33.498-36.623 7.182.987 20.669 2.906 24.068 4.825 4.55 2.74 39.967 37.774 61.897 46.436 21.93 8.553 74.069 31.415 109.102 12.062 35.142-19.408 59.43-54.99 59.43-54.99s-9.65-22.423-24.836-33.717c-15.186-11.294-61.24-29.605-80.647-29.44-19.518.164-42.215.054-62.336 8.004-20.176 8.004-54.277 37.445-58.717 39.967-3.51 1.974-14.09-3.125-18.257-5.373l16.94-23.246c15.845-24.068 36.624-54.331 42.435-59.265l4.331-8.772 29.551-5.099 50 20.724c19.792 4.112 35.856-.274 54.935.274 19.079.384 43.311 14.364 87.28 4.112 43.806-10.307 87.117-55.483 87.117-55.483s-7.346-1.919-12.554-7.84a218.75 218.75 0 01-18.531-25.055c-8.991-13.267-22.698-22.204-51.426-39.145-28.509-16.886-72.588-2.467-84.156 1.81-11.458 4.276-30.592 5.043-52.796 20.669-22.26 15.68-48.74 62.445-59.047 69.079-9.375 5.92-24.342 2.96-26.919 2.302 1.7-7.017 3.619-14.473 6.525-20.45 6.524-13.486 32.127-74.67 40.35-95.778 9.102-5.209 28.51-16.557 33.389-20.176 6.634-4.824 14.254-5.373 35.526 1.152 21.272 6.469 70.395 10.362 101.81-5.647 31.25-16.01 73.575-69.299 83.224-94.464 9.978-25.383 15.79-67.434 15.79-67.434s-21.382.658-31.525.11c-10.307-.549-35.965-7.511-69.408-3.345-33.333 4.112-74.836 17.764-101.097 50.878-26.26 33.169-28.399 99.287-37.171 108.827-6.25 6.853-18.86 12.555-25.603 15.351 6.14-24.78 16.392-80.538 18.202-104.277l3.728-48.136zm-830.048 0a427.086 427.086 0 00-25.768-24.78c-8.881-6.964-58.553.712-96.272-22.863-37.61-23.63-83.718-79.277-96.053-102.413-12.445-23.136-12.555-37.993-15.954-65.79l-7.567-57.29s41.064 6.414 69.737 13.596c28.564 7.182 48.85 20.066 65.68 34.156 16.886 14.035 12.939 1.974 33.827 21.985 20.779 20.01 41.228 54.605 51.426 87.83 10.307 33.333 4.221 76.973 6.305 84.649 1.37 5.153 8.772 12.938 13.596 17.653l-4.934-65.844a741.78 741.78 0 01-.11-85.034l2.577-21.6c-6.634-6.58-27.85-27.413-38.597-36.075-12.993-10.307-51.096-8.388-80.866-30.757-28.509-21.327-73.794-82.018-65.625-136.569 8.114-54.55 34.484-91.94 34.484-91.94s55.373 13.157 88.214 40.076c32.84 26.92 69.901 86.843 64.145 130.867-5.922 43.97-32.95 61.788-32.237 76.152.657 12.335 25.383 29.605 32.675 34.375 1.042-7.84 1.864-14.858 1.37-19.847-1.808-17.599 9.321-48.246 9.321-48.246s11.678-26.151 13.432-34.375c1.754-8.224-4.167-26.7-10.033-44.627-5.866-17.983 2.796-53.783 1.042-74.562-1.81-20.779 5.811-59.156 7.017-68.75.987-9.43 14.529-41.996 19.573-49.726l13.487-24.781c6.524-10.198 16.94-15.516 25.164-22.972 8.334-7.456 17.6-17.05 23.356-24.232 5.756-7.182 20.12-11.459 26.864-14.036C378.894 134.01 390.298 118 390.298 118s.603 18.366 3.07 27.083c2.577 8.718 9.759 13.871 13.597 34.376 3.728 20.559 7.401 37.829 7.84 55.811.548 17.928-4.496 55.812-12.94 74.507-8.552 18.695-20.558 41.667-41.885 71.163-21.217 29.496-78.51 72.204-84.705 80.647l-14.802 43.586s-6.36 28.673-7.347 63.268l2.741.767c5.264 1.042 18.531-8.827 25.384-15.899 6.853-7.127 4.935-16.393 11.733-34.923 6.798-18.64 28.29-63.652 54.66-92.874 26.426-29.276 60.582-39.2 92.106-43.147 31.524-3.947 89.693 19.299 89.693 19.299s-5.647 39.583-18.366 73.41c-12.665 33.717-76.097 72.369-107.457 84.156-31.305 11.678-107.292 2.029-114.364 3.18l-27.742 15.9-8.443-1.262v.768c.055 28.235-7.072 37.5-4.715 60.252 2.358 22.753-1.59 46.163 3.18 62.83l9.704 27.083 8.663-5.208c3.728-4.386 9.758-19.134 16.995-43.805 7.347-24.726 43.696-65.242 66.777-86.35 22.917-21.107 91.01-36.732 108.17-31.085l56.524.987s-10.527 43.914-17.928 62.829c-7.292 18.97-2.906 27.906-11.184 44.298-8.17 16.338-12.83 23.082-38.158 44.792-25.384 21.82-61.569 29.935-90.626 27.851-29.167-2.138-77.796-10.58-87.116-9.21-9.43 1.315-12.172 5.647-12.172 5.647l-.657-1.207c-2.851 8.334-4.112 22.753-3.18 37.391 1.096 15.57 3.508 55.154 10.58 85.91 7.183 30.702 15.955 76.92 22.26 82.95l12.445 10.527v.11l7.347-8.005c5.756-9.814 1.15-31.305 9.978-75.603 8.826-44.244 61.513-95.505 99.123-114.365 37.61-18.75 112.336-19.792 112.336-19.792s-6.415 42.27-11.13 53.729c-4.824 11.568-.767 19.956-11.458 51.919-10.855 32.017-45.395 62.445-84.266 86.404-38.87 24.013-102.138 18.147-107.785 23.958l-11.733 12.884c1.755 9.704 4.277 22.972 8.663 30.099 6.743 11.02 21.82 58.553 47.04 91.283 12.28 15.844 21.052 28.18 26.918 36.623 2.96-2.85 17.873-16.94 22.917-24.616 5.702-8.553-12.72-43.476-9.32-86.952 3.454-43.586 26.645-64.749 57.073-91.064l98.19-23.794s6.196 26.919 7.95 60.307c1.7 33.279-20.23 72.15-49.178 98.849-29.057 26.645-78.838 26.042-94.408 44.902-7.73 9.32-28.015 29.495-28.29 29.77l4.058 6.304s10.033 19.189 23.52 33.224c9.813 10.252 45.888 42.49 77.467 65.79 3.235-5.373 7.84-13.706 9.65-19.627 3.014-9.43-13.214-20.34-9.979-83.828 2.906-56.03 67.434-91.338 85.033-103.235 17.435-11.897 41.996-30.756 41.996-30.756s43.202 76.316-2.357 153.893c-25.165 43.092-102.468 60.307-106.36 67.325l-9.705 22.149c8.772 6.14 17.106 11.404 24.069 14.912l63.651 34.979c26.261 12.225 32.292 6.36 74.562 32.785 42.38 26.316 100.549 72.04 106.305 79.496 0 0-7.401 22.642-10.91 26.974-3.564 4.386-7.072 2.083-9.759-.165-2.796-2.303 1.097-11.842-5.866-17.708-7.072-5.867-59.101-51.865-75.987-63.378a342.93 342.93 0 00-63.597-34.156c-12.993-4.934-39.858-17.105-60.691-27.577l-6.36 3.345c-4.221.438-27.028-.823-33.936 6.743-6.853 7.566-32.347 56.305-49.123 66.229-16.832 9.978-48.52 33.991-83.334 24.068-34.704-9.978-56.908-8.553-73.136-20.285-16.174-11.623-24.507-32.786-24.507-32.786s8.114-9.1 12.939-19.737c4.824-10.636 32.017-44.517 50.987-54.002 19.079-9.485 67.105-24.397 94.682-13.87 27.632 10.69 53.948 34.868 63.652 39.09 9.813 4.166 33.06-1.536 36.787-3.729l.658-.493-15.186-8.608c-12.61-8.662-78.455-59.54-94.957-74.836a392.93 392.93 0 01-33.498-36.623c-7.182.987-20.669 2.906-24.068 4.825-4.55 2.741-39.967 37.774-61.897 46.437-21.93 8.552-74.069 31.414-109.102 12.061-35.142-19.408-59.43-54.99-59.43-54.99s9.65-22.423 24.836-33.716c15.186-11.294 61.24-29.606 80.647-29.441 19.518.164 42.215.054 62.336 8.004 20.176 8.004 54.277 37.445 58.717 39.967 3.51 1.974 14.09-3.125 18.257-5.372l-16.94-23.246c-15.845-24.068-36.624-54.332-42.435-59.266l-4.331-8.772-29.55-5.099-50.001 20.724c-19.792 4.112-35.856-.274-54.935.274-19.079.384-43.311 14.364-87.28 4.112-43.806-10.307-87.117-55.482-87.117-55.482s7.346-1.92 12.554-7.84a218.751 218.751 0 0018.531-25.055c8.992-13.268 22.698-22.204 51.426-39.145 28.509-16.886 72.588-2.467 84.156 1.809 11.458 4.276 30.592 5.044 52.796 20.669 22.26 15.68 48.74 62.445 59.047 69.08 9.375 5.92 24.342 2.96 26.919 2.302a104.99 104.99 0 00-6.524-20.45 2578.136 2578.136 0 01-40.352-95.779 612.393 612.393 0 01-33.388-20.175c-6.634-4.825-14.254-5.373-35.526 1.151-21.437 6.414-70.615 10.307-102.03-5.702-31.25-16.009-73.465-69.298-83.223-94.463C5.81 785.053 0 743.003 0 743.003s21.382.658 31.524.11c10.307-.549 35.965-7.511 69.408-3.345 33.334 4.112 74.836 17.764 101.097 50.878 26.262 33.169 28.4 99.287 37.172 108.827 6.25 6.853 18.86 12.555 25.603 15.351-6.14-24.78-16.393-80.538-18.202-104.277l-3.728-48.136z" fill-rule="nonzero"/><text font-family="FranklinGothic-Heavy, Franklin Gothic Heavy" font-size="1400" font-weight="600" letter-spacing="-30"><tspan x="1787" y="1283">A LIST A</tspan> <tspan x="6755.301" y="1283" letter-spacing="-80">P</tspan> <tspan x="7515.438" y="1283" letter-spacing="-60">A</tspan> <tspan x="8348.211" y="1283" letter-spacing="-70">R</tspan> <tspan x="9252.332" y="1283">T</tspan></text></g></svg>